<svg width="49" height="49" viewBox="0 0 49 49" fill="none" xmlns="http://www.w3.org/2000/svg">
<rect x="0.160156" y="0.5" width="48" height="48" rx="8" fill="#DBEAFE"/>
<path d="M33.2802 18.8999L27.2302 14.8399C26.9116 14.6236 26.5375 14.5038 26.1525 14.4949C25.7676 14.486 25.3883 14.5885 25.0602 14.7899L15.1102 20.9099C14.8201 21.0888 14.5805 21.3389 14.4143 21.6365C14.248 21.934 14.1605 22.2691 14.1602 22.6099V28.4299C14.1597 28.7575 14.2397 29.0802 14.3931 29.3697C14.5465 29.6591 14.7687 29.9064 15.0402 30.0899L21.0902 34.1599C21.4087 34.3762 21.7829 34.496 22.1678 34.5049C22.5527 34.5138 22.932 34.4113 23.2602 34.2099L33.2102 28.0899C33.5002 27.911 33.7398 27.6609 33.906 27.3633C34.0723 27.0658 34.1598 26.7307 34.1602 26.3899V20.5599C34.1607 20.2323 34.0807 19.9096 33.9272 19.6201C33.7738 19.3307 33.5516 19.0834 33.2802 18.8999Z" stroke="#2563EB" stroke-width="2" stroke-linecap="round" stroke-linejoin="round"/>
<path d="M22.1602 34.4999V26.4999L14.4102 21.6499" stroke="#2563EB" stroke-width="2" stroke-linecap="round" stroke-linejoin="round"/>
<path d="M22.1602 26.4999L33.9302 19.6299" stroke="#2563EB" stroke-width="2" stroke-linecap="round" stroke-linejoin="round"/>
</svg>
