<svg width="145" height="66" viewBox="0 0 145 66" fill="none" xmlns="http://www.w3.org/2000/svg">
<rect width="29" height="29" fill="#3C77C3"/>
<path d="M8.274 14.718C8.274 13.494 8.55 12.396 9.102 11.424C9.654 10.44 10.404 9.672 11.352 9.12C12.312 8.568 13.374 8.292 14.538 8.292C15.906 8.292 17.1 8.622 18.12 9.282C19.14 9.942 19.884 10.878 20.352 12.09H18.39C18.042 11.334 17.538 10.752 16.878 10.344C16.23 9.936 15.45 9.732 14.538 9.732C13.662 9.732 12.876 9.936 12.18 10.344C11.484 10.752 10.938 11.334 10.542 12.09C10.146 12.834 9.948 13.71 9.948 14.718C9.948 15.714 10.146 16.59 10.542 17.346C10.938 18.09 11.484 18.666 12.18 19.074C12.876 19.482 13.662 19.686 14.538 19.686C15.45 19.686 16.23 19.488 16.878 19.092C17.538 18.684 18.042 18.102 18.39 17.346H20.352C19.884 18.546 19.14 19.476 18.12 20.136C17.1 20.784 15.906 21.108 14.538 21.108C13.374 21.108 12.312 20.838 11.352 20.298C10.404 19.746 9.654 18.984 9.102 18.012C8.55 17.04 8.274 15.942 8.274 14.718Z" fill="white"/>
<rect width="29" height="29" transform="translate(29 9)" fill="#3C77C3"/>
<path d="M45.992 30L43.004 24.87H41.024V30H39.386V17.454H43.436C44.384 17.454 45.182 17.616 45.83 17.94C46.49 18.264 46.982 18.702 47.306 19.254C47.63 19.806 47.792 20.436 47.792 21.144C47.792 22.008 47.54 22.77 47.036 23.43C46.544 24.09 45.8 24.528 44.804 24.744L47.954 30H45.992ZM41.024 23.556H43.436C44.324 23.556 44.99 23.34 45.434 22.908C45.878 22.464 46.1 21.876 46.1 21.144C46.1 20.4 45.878 19.824 45.434 19.416C45.002 19.008 44.336 18.804 43.436 18.804H41.024V23.556Z" fill="white"/>
<rect width="29" height="29" transform="translate(58)" fill="#3C77C3"/>
<path d="M70.524 9.786V13.98H75.096V15.33H70.524V19.65H75.636V21H68.886V8.436H75.636V9.786H70.524Z" fill="white"/>
<rect width="29" height="29" transform="translate(87 9)" fill="#3C77C3"/>
<path d="M106.754 17.454L102.02 30H100.13L95.396 17.454H97.142L101.084 28.272L105.026 17.454H106.754Z" fill="white"/>
<rect width="29" height="29" transform="translate(116)" fill="#3C77C3"/>
<path d="M132.802 18.21H127.33L126.322 21H124.594L129.13 8.526H131.02L135.538 21H133.81L132.802 18.21ZM132.334 16.878L130.066 10.542L127.798 16.878H132.334Z" fill="white"/>
<path d="M17.364 59.126C16.536 59.126 15.792 58.982 15.132 58.694C14.484 58.394 13.974 57.986 13.602 57.47C13.23 56.942 13.038 56.336 13.026 55.652H14.772C14.832 56.24 15.072 56.738 15.492 57.146C15.924 57.542 16.548 57.74 17.364 57.74C18.144 57.74 18.756 57.548 19.2 57.164C19.656 56.768 19.884 56.264 19.884 55.652C19.884 55.172 19.752 54.782 19.488 54.482C19.224 54.182 18.894 53.954 18.498 53.798C18.102 53.642 17.568 53.474 16.896 53.294C16.068 53.078 15.402 52.862 14.898 52.646C14.406 52.43 13.98 52.094 13.62 51.638C13.272 51.17 13.098 50.546 13.098 49.766C13.098 49.082 13.272 48.476 13.62 47.948C13.968 47.42 14.454 47.012 15.078 46.724C15.714 46.436 16.44 46.292 17.256 46.292C18.432 46.292 19.392 46.586 20.136 47.174C20.892 47.762 21.318 48.542 21.414 49.514H19.614C19.554 49.034 19.302 48.614 18.858 48.254C18.414 47.882 17.826 47.696 17.094 47.696C16.41 47.696 15.852 47.876 15.42 48.236C14.988 48.584 14.772 49.076 14.772 49.712C14.772 50.168 14.898 50.54 15.15 50.828C15.414 51.116 15.732 51.338 16.104 51.494C16.488 51.638 17.022 51.806 17.706 51.998C18.534 52.226 19.2 52.454 19.704 52.682C20.208 52.898 20.64 53.24 21 53.708C21.36 54.164 21.54 54.788 21.54 55.58C21.54 56.192 21.378 56.768 21.054 57.308C20.73 57.848 20.25 58.286 19.614 58.622C18.978 58.958 18.228 59.126 17.364 59.126ZM32.5185 59.126C31.3545 59.126 30.2925 58.856 29.3325 58.316C28.3725 57.764 27.6105 57.002 27.0465 56.03C26.4945 55.046 26.2185 53.942 26.2185 52.718C26.2185 51.494 26.4945 50.396 27.0465 49.424C27.6105 48.44 28.3725 47.678 29.3325 47.138C30.2925 46.586 31.3545 46.31 32.5185 46.31C33.6945 46.31 34.7625 46.586 35.7225 47.138C36.6825 47.678 37.4385 48.434 37.9905 49.406C38.5425 50.378 38.8185 51.482 38.8185 52.718C38.8185 53.954 38.5425 55.058 37.9905 56.03C37.4385 57.002 36.6825 57.764 35.7225 58.316C34.7625 58.856 33.6945 59.126 32.5185 59.126ZM32.5185 57.704C33.3945 57.704 34.1805 57.5 34.8765 57.092C35.5845 56.684 36.1365 56.102 36.5325 55.346C36.9405 54.59 37.1445 53.714 37.1445 52.718C37.1445 51.71 36.9405 50.834 36.5325 50.09C36.1365 49.334 35.5905 48.752 34.8945 48.344C34.1985 47.936 33.4065 47.732 32.5185 47.732C31.6305 47.732 30.8385 47.936 30.1425 48.344C29.4465 48.752 28.8945 49.334 28.4865 50.09C28.0905 50.834 27.8925 51.71 27.8925 52.718C27.8925 53.714 28.0905 54.59 28.4865 55.346C28.8945 56.102 29.4465 56.684 30.1425 57.092C30.8505 57.5 31.6425 57.704 32.5185 57.704ZM45.4988 57.668H49.8908V59H43.8608V46.454H45.4988V57.668ZM56.1124 46.454V54.392C56.1124 55.508 56.3824 56.336 56.9224 56.876C57.4744 57.416 58.2364 57.686 59.2084 57.686C60.1684 57.686 60.9184 57.416 61.4584 56.876C62.0104 56.336 62.2864 55.508 62.2864 54.392V46.454H63.9244V54.374C63.9244 55.418 63.7144 56.3 63.2944 57.02C62.8744 57.728 62.3044 58.256 61.5844 58.604C60.8764 58.952 60.0784 59.126 59.1904 59.126C58.3024 59.126 57.4984 58.952 56.7784 58.604C56.0704 58.256 55.5064 57.728 55.0864 57.02C54.6784 56.3 54.4744 55.418 54.4744 54.374V46.454H56.1124ZM77.2589 46.454V47.786H73.8389V59H72.2009V47.786H68.7629V46.454H77.2589ZM83.7931 46.454V59H82.1551V46.454H83.7931ZM95.1528 59.126C93.9888 59.126 92.9268 58.856 91.9668 58.316C91.0068 57.764 90.2448 57.002 89.6808 56.03C89.1288 55.046 88.8528 53.942 88.8528 52.718C88.8528 51.494 89.1288 50.396 89.6808 49.424C90.2448 48.44 91.0068 47.678 91.9668 47.138C92.9268 46.586 93.9888 46.31 95.1528 46.31C96.3288 46.31 97.3968 46.586 98.3568 47.138C99.3168 47.678 100.073 48.434 100.625 49.406C101.177 50.378 101.453 51.482 101.453 52.718C101.453 53.954 101.177 55.058 100.625 56.03C100.073 57.002 99.3168 57.764 98.3568 58.316C97.3968 58.856 96.3288 59.126 95.1528 59.126ZM95.1528 57.704C96.0288 57.704 96.8148 57.5 97.5108 57.092C98.2188 56.684 98.7708 56.102 99.1668 55.346C99.5748 54.59 99.7788 53.714 99.7788 52.718C99.7788 51.71 99.5748 50.834 99.1668 50.09C98.7708 49.334 98.2248 48.752 97.5288 48.344C96.8328 47.936 96.0408 47.732 95.1528 47.732C94.2648 47.732 93.4728 47.936 92.7768 48.344C92.0808 48.752 91.5288 49.334 91.1208 50.09C90.7248 50.834 90.5268 51.71 90.5268 52.718C90.5268 53.714 90.7248 54.59 91.1208 55.346C91.5288 56.102 92.0808 56.684 92.7768 57.092C93.4848 57.5 94.2768 57.704 95.1528 57.704ZM116.359 59H114.721L108.133 49.01V59H106.495V46.436H108.133L114.721 56.408V46.436H116.359V59ZM126.009 59.126C125.181 59.126 124.437 58.982 123.777 58.694C123.129 58.394 122.619 57.986 122.247 57.47C121.875 56.942 121.683 56.336 121.671 55.652H123.417C123.477 56.24 123.717 56.738 124.137 57.146C124.569 57.542 125.193 57.74 126.009 57.74C126.789 57.74 127.401 57.548 127.845 57.164C128.301 56.768 128.529 56.264 128.529 55.652C128.529 55.172 128.397 54.782 128.133 54.482C127.869 54.182 127.539 53.954 127.143 53.798C126.747 53.642 126.213 53.474 125.541 53.294C124.713 53.078 124.047 52.862 123.543 52.646C123.051 52.43 122.625 52.094 122.265 51.638C121.917 51.17 121.743 50.546 121.743 49.766C121.743 49.082 121.917 48.476 122.265 47.948C122.613 47.42 123.099 47.012 123.723 46.724C124.359 46.436 125.085 46.292 125.901 46.292C127.077 46.292 128.037 46.586 128.781 47.174C129.537 47.762 129.963 48.542 130.059 49.514H128.259C128.199 49.034 127.947 48.614 127.503 48.254C127.059 47.882 126.471 47.696 125.739 47.696C125.055 47.696 124.497 47.876 124.065 48.236C123.633 48.584 123.417 49.076 123.417 49.712C123.417 50.168 123.543 50.54 123.795 50.828C124.059 51.116 124.377 51.338 124.749 51.494C125.133 51.638 125.667 51.806 126.351 51.998C127.179 52.226 127.845 52.454 128.349 52.682C128.853 52.898 129.285 53.24 129.645 53.708C130.005 54.164 130.185 54.788 130.185 55.58C130.185 56.192 130.023 56.768 129.699 57.308C129.375 57.848 128.895 58.286 128.259 58.622C127.623 58.958 126.873 59.126 126.009 59.126Z" fill="black"/>
</svg>
