<svg width="48" height="48" viewBox="0 0 48 48" fill="none" xmlns="http://www.w3.org/2000/svg">
<rect width="48" height="48" rx="8" fill="#DBEAFE"/>
<path d="M15.2959 32.6021L21.6599 26.2381M29.6739 23.4081L27.7689 29.1241C27.7384 29.2155 27.6863 29.2982 27.617 29.3652C27.5477 29.4322 27.4633 29.4816 27.3709 29.5091L15.6929 32.9811C15.5877 33.0123 15.476 33.0141 15.3698 32.9862C15.2637 32.9584 15.1672 32.9019 15.0909 32.823C15.0146 32.7442 14.9614 32.6459 14.937 32.5388C14.9127 32.4318 14.9182 32.3202 14.9529 32.2161L18.7449 20.8421C18.7721 20.7604 18.8165 20.6855 18.8752 20.6226C18.9339 20.5596 19.0054 20.51 19.0849 20.4771L24.4719 18.2591C24.5815 18.2138 24.7019 18.202 24.8181 18.2252C24.9343 18.2483 25.0411 18.3053 25.1249 18.3891L29.5289 22.7941C29.6077 22.8728 29.663 22.972 29.6887 23.0805C29.7143 23.1889 29.7092 23.3023 29.6739 23.4081Z" stroke="#2563EB" stroke-width="1.5" stroke-linecap="round" stroke-linejoin="round"/>
<path d="M30.4029 15.1821L32.7669 17.5461C32.9446 17.716 33.0865 17.9198 33.1843 18.1453C33.2822 18.3709 33.334 18.6137 33.3367 18.8595C33.3394 19.1054 33.293 19.3493 33.2001 19.5769C33.1073 19.8046 32.9699 20.0114 32.7961 20.1852C32.6223 20.3591 32.4154 20.4965 32.1878 20.5893C31.9601 20.6821 31.7162 20.7285 31.4704 20.7258C31.2245 20.7231 30.9817 20.6713 30.7562 20.5735C30.5306 20.4756 30.3269 20.3337 30.1569 20.1561L27.7919 17.7921C27.4584 17.4434 27.2746 16.978 27.2799 16.4955C27.2852 16.013 27.4793 15.5518 27.8205 15.2106C28.1617 14.8694 28.6229 14.6754 29.1054 14.67C29.5879 14.6647 30.0543 14.8485 30.4029 15.1821Z" fill="#2563EB" stroke="#2563EB" stroke-width="1.5" stroke-linecap="round" stroke-linejoin="round"/>
<path d="M23.7808 24.1161C23.6425 23.9729 23.4769 23.8586 23.2939 23.78C23.1109 23.7014 22.9141 23.66 22.7149 23.6583C22.5158 23.6565 22.3183 23.6945 22.1339 23.7699C21.9496 23.8453 21.7821 23.9567 21.6412 24.0975C21.5004 24.2384 21.389 24.4059 21.3136 24.5902C21.2382 24.7745 21.2002 24.9721 21.202 25.1712C21.2037 25.3704 21.2451 25.5672 21.3237 25.7502C21.4023 25.9332 21.5166 26.0988 21.6598 26.2371C21.9427 26.5104 22.3216 26.6616 22.7149 26.6581C23.1082 26.6547 23.4845 26.497 23.7626 26.2189C24.0407 25.9408 24.1984 25.5645 24.2018 25.1712C24.2053 24.7779 24.0541 24.399 23.7808 24.1161Z" stroke="#2563EB" stroke-width="1.5" stroke-linecap="round" stroke-linejoin="round"/>
</svg>
