<svg width="48" height="48" viewBox="0 0 48 48" fill="none" xmlns="http://www.w3.org/2000/svg">
<rect width="48" height="48" rx="24" fill="#DBEAFE"/>
<path d="M31.0392 31.0433H28.0775V26.4025C28.0775 25.2958 28.055 23.8717 26.5342 23.8717C24.99 23.8717 24.7542 25.0758 24.7542 26.3208V31.0433H21.7925V21.5H24.6375V22.8008H24.6758C25.0733 22.0508 26.04 21.2592 27.4842 21.2592C30.485 21.2592 31.04 23.2342 31.04 25.805L31.0392 31.0433ZM18.4475 20.1942C17.4942 20.1942 16.7283 19.4225 16.7283 18.4733C16.7283 17.525 17.495 16.7542 18.4475 16.7542C19.3975 16.7542 20.1675 17.525 20.1675 18.4733C20.1675 19.4225 19.3967 20.1942 18.4475 20.1942ZM19.9325 31.0433H16.9625V21.5H19.9325V31.0433ZM32.5208 14H15.4758C14.66 14 14 14.645 14 15.4408V32.5592C14 33.3558 14.66 34 15.4758 34H32.5183C33.3333 34 34 33.3558 34 32.5592V15.4408C34 14.645 33.3333 14 32.5183 14H32.5208Z" fill="#2563EB"/>
</svg>
