<svg width="49" height="49" viewBox="0 0 49 49" fill="none" xmlns="http://www.w3.org/2000/svg">
<rect x="0.5" y="0.5" width="48" height="48" rx="8" fill="#DBEAFE"/>
<path d="M27.5 14.5H18.5C17.9696 14.5 17.4609 14.7107 17.0858 15.0858C16.7107 15.4609 16.5 15.9696 16.5 16.5V32.5C16.5 33.0304 16.7107 33.5391 17.0858 33.9142C17.4609 34.2893 17.9696 34.5 18.5 34.5H30.5C31.0304 34.5 31.5391 34.2893 31.9142 33.9142C32.2893 33.5391 32.5 33.0304 32.5 32.5V19.5L27.5 14.5Z" stroke="#2563EB" stroke-width="2" stroke-linecap="round" stroke-linejoin="round"/>
<path d="M26.5 14.5V18.5C26.5 19.0304 26.7107 19.5391 27.0858 19.9142C27.4609 20.2893 27.9696 20.5 28.5 20.5H32.5" stroke="#2563EB" stroke-width="2" stroke-linecap="round" stroke-linejoin="round"/>
<path d="M22.5 21.5H20.5" stroke="#2563EB" stroke-width="2" stroke-linecap="round" stroke-linejoin="round"/>
<path d="M28.5 25.5H20.5" stroke="#2563EB" stroke-width="2" stroke-linecap="round" stroke-linejoin="round"/>
<path d="M28.5 29.5H20.5" stroke="#2563EB" stroke-width="2" stroke-linecap="round" stroke-linejoin="round"/>
</svg>
