<svg width="64" height="64" viewBox="0 0 64 64" fill="none" xmlns="http://www.w3.org/2000/svg">
<rect width="64" height="64" rx="32" fill="#DBEAFE"/>
<path d="M37.3334 44V41.3333C37.3334 39.9188 36.7715 38.5623 35.7713 37.5621C34.7711 36.5619 33.4146 36 32.0001 36H24.0001C22.5856 36 21.229 36.5619 20.2288 37.5621C19.2287 38.5623 18.6667 39.9188 18.6667 41.3333V44" stroke="#2563EB" stroke-width="2.66667" stroke-linecap="round" stroke-linejoin="round"/>
<path d="M28.0001 30.6667C30.9456 30.6667 33.3334 28.2789 33.3334 25.3333C33.3334 22.3878 30.9456 20 28.0001 20C25.0546 20 22.6667 22.3878 22.6667 25.3333C22.6667 28.2789 25.0546 30.6667 28.0001 30.6667Z" stroke="#2563EB" stroke-width="2.66667" stroke-linecap="round" stroke-linejoin="round"/>
<path d="M45.3333 44V41.3333C45.3324 40.1516 44.9391 39.0037 44.2151 38.0698C43.4911 37.1358 42.4774 36.4688 41.3333 36.1733" stroke="#2563EB" stroke-width="2.66667" stroke-linecap="round" stroke-linejoin="round"/>
<path d="M37.3333 20.1733C38.4805 20.4671 39.4973 21.1343 40.2234 22.0698C40.9496 23.0052 41.3437 24.1558 41.3437 25.34C41.3437 26.5242 40.9496 27.6748 40.2234 28.6103C39.4973 29.5457 38.4805 30.2129 37.3333 30.5067" stroke="#2563EB" stroke-width="2.66667" stroke-linecap="round" stroke-linejoin="round"/>
</svg>
