<svg width="49" height="49" viewBox="0 0 49 49" fill="none" xmlns="http://www.w3.org/2000/svg">
<rect x="0.830078" y="0.5" width="48" height="48" rx="8" fill="#DBEAFE"/>
<path d="M26.3301 19.5C26.6062 19.5 26.8301 19.2761 26.8301 19C26.8301 18.7239 26.6062 18.5 26.3301 18.5C26.0539 18.5 25.8301 18.7239 25.8301 19C25.8301 19.2761 26.0539 19.5 26.3301 19.5Z" fill="#2563EB" stroke="#2563EB" stroke-width="2" stroke-linecap="round" stroke-linejoin="round"/>
<path d="M30.3301 23.5C30.6062 23.5 30.8301 23.2761 30.8301 23C30.8301 22.7239 30.6062 22.5 30.3301 22.5C30.0539 22.5 29.8301 22.7239 29.8301 23C29.8301 23.2761 30.0539 23.5 30.3301 23.5Z" fill="#2563EB" stroke="#2563EB" stroke-width="2" stroke-linecap="round" stroke-linejoin="round"/>
<path d="M21.3301 20.5C21.6062 20.5 21.8301 20.2761 21.8301 20C21.8301 19.7239 21.6062 19.5 21.3301 19.5C21.0539 19.5 20.8301 19.7239 20.8301 20C20.8301 20.2761 21.0539 20.5 21.3301 20.5Z" fill="#2563EB" stroke="#2563EB" stroke-width="2" stroke-linecap="round" stroke-linejoin="round"/>
<path d="M19.3301 25.5C19.6062 25.5 19.8301 25.2761 19.8301 25C19.8301 24.7239 19.6062 24.5 19.3301 24.5C19.0539 24.5 18.8301 24.7239 18.8301 25C18.8301 25.2761 19.0539 25.5 19.3301 25.5Z" fill="#2563EB" stroke="#2563EB" stroke-width="2" stroke-linecap="round" stroke-linejoin="round"/>
<path d="M24.8301 14.5C19.3301 14.5 14.8301 19 14.8301 24.5C14.8301 30 19.3301 34.5 24.8301 34.5C25.7561 34.5 26.4781 33.754 26.4781 32.812C26.4781 32.375 26.2981 31.977 26.0411 31.687C25.7511 31.398 25.6031 31.035 25.6031 30.562C25.5993 30.3419 25.6398 30.1233 25.7223 29.9192C25.8048 29.7151 25.9275 29.5298 26.0832 29.3741C26.2388 29.2185 26.4242 29.0957 26.6283 29.0132C26.8324 28.9308 27.051 28.8902 27.2711 28.894H29.2671C32.3181 28.894 34.8221 26.391 34.8221 23.34C34.7951 18.512 30.2911 14.5 24.8301 14.5Z" stroke="#2563EB" stroke-width="2" stroke-linecap="round" stroke-linejoin="round"/>
</svg>
